<svg xmlns="http://www.w3.org/2000/svg">
  <defs>
    <symbol id="icon-trail" viewBox="0 0 100 125">
      <path
        d="M10,11.4541016c0,0.9492188,0.1269531,1.8867188,0.3764648,2.7890625  c0.1230469,0.4423828,0.5249023,0.7324219,0.9633789,0.7324219c0.0883789,0,0.1782227-0.0117188,0.2675781-0.0361328  c0.5322266-0.1474609,0.8442383-0.6992188,0.6967773-1.2314453C12.1020508,12.9804688,12,12.2226562,12,11.4541016V11  c0-0.5527344-0.4477539-1-1-1s-1,0.4472656-1,1V11.4541016z" />
      <path
        d="M20.3505859,21.1796875c0.5522461,0,1-0.4472656,1-1s-0.4477539-1-1-1h-1.315918  c-1.3452148,0-2.6533203-0.4189453-3.7827148-1.2109375c-0.453125-0.3183594-1.0751953-0.2080078-1.3925781,0.2441406  s-0.2080078,1.0751953,0.2441406,1.3925781c1.4672852,1.0302734,3.1723633,1.5742188,4.9311523,1.5742188H20.3505859z" />
      <path
        d="M55.3041992,55.8095703c0-0.5527344-0.4477539-1-1-1h-5.9633789c-0.5522461,0-1,0.4472656-1,1s0.4477539,1,1,1h5.9633789  C54.8564453,56.8095703,55.3041992,56.3623047,55.3041992,55.8095703z" />
      <path
        d="M44.9091797,72.6425781h-5.9628906c-0.5522461,0-1,0.4472656-1,1s0.4477539,1,1,1h5.9628906c0.5522461,0,1-0.4472656,1-1  S45.4614258,72.6425781,44.9091797,72.6425781z" />
      <path
        d="M87.8916016,66.2753906c-0.2885742,1.7880859-1.1538086,3.4169922-2.4355469,4.5878906  c-0.4077148,0.3720703-0.4365234,1.0048828-0.0639648,1.4121094c0.1972656,0.2167969,0.4672852,0.3261719,0.7387695,0.3261719  c0.2407227,0,0.4819336-0.0869141,0.6738281-0.2617188c1.6137695-1.4736328,2.7006836-3.5136719,3.0615234-5.7460938  c0.0878906-0.5449219-0.2827148-1.0585938-0.8276367-1.1464844C88.4897461,65.3544922,87.9799805,65.7304688,87.8916016,66.2753906z  " />
      <path
        d="M50.2158203,19.1796875h-0.0498047c-0.5522461,0-0.9750977,0.4472656-0.9750977,1s0.4726562,1,1.0249023,1  c1.7070312,0,3.3540039,0.6806641,4.6367188,1.9169922c0.1938477,0.1875,0.4438477,0.2802734,0.6938477,0.2802734  c0.262207,0,0.5239258-0.1025391,0.7202148-0.3056641c0.3833008-0.3984375,0.371582-1.03125-0.0263672-1.4140625  C54.5830078,20.0595703,52.4433594,19.1796875,50.2158203,19.1796875z" />
      <path
        d="M45.8007812,37.6318359c0,0.5527344,0.4477539,1,1,1h3.4150391c0.9692383,0,1.9223633-0.1640625,2.8330078-0.4873047  c0.5200195-0.1845703,0.7919922-0.7568359,0.6074219-1.2773438s-0.7573242-0.7910156-1.2773438-0.6074219  c-0.6943359,0.2470703-1.4223633,0.3720703-2.1630859,0.3720703h-3.4150391  C46.2485352,36.6318359,45.8007812,37.0791016,45.8007812,37.6318359z" />
      <path
        d="M50.8725586,74.6425781h5.9628906c0.5522461,0,1-0.4472656,1-1s-0.4477539-1-1-1h-5.9628906c-0.5522461,0-1,0.4472656-1,1  S50.3203125,74.6425781,50.8725586,74.6425781z" />
      <path
        d="M73.7250977,73.6425781c0,0.5527344,0.4477539,1,1,1h5.9628906c0.5522461,0,1-0.4472656,1-1s-0.4477539-1-1-1h-5.9628906  C74.1728516,72.6425781,73.7250977,73.0898438,73.7250977,73.6425781z" />
      <path
        d="M42.0571289,55.7294922c0.1542969,0.0859375,0.3208008,0.1259766,0.4853516,0.1259766  c0.3510742,0,0.6918945-0.1855469,0.875-0.5136719C43.6860352,54.859375,43.512207,54.25,43.0297852,53.9814453  c-1.5019531-0.8349609-2.684082-2.2333984-3.3286133-3.9355469c-0.1958008-0.5175781-0.7714844-0.7763672-1.2890625-0.5820312  c-0.5166016,0.1953125-0.7768555,0.7734375-0.5810547,1.2890625C38.6420898,52.8974609,40.1430664,54.6640625,42.0571289,55.7294922  z" />
      <path
        d="M66.2304688,56.8095703c0.5522461,0,1-0.4472656,1-1s-0.4477539-1-1-1h-5.9633789c-0.5522461,0-1,0.4472656-1,1  s0.4477539,1,1,1H66.2304688z" />
      <path
        d="M27.0200195,72.6425781c-0.5522461,0-1,0.4472656-1,1s0.4477539,1,1,1h5.9628906c0.5522461,0,1-0.4472656,1-1  s-0.4477539-1-1-1H27.0200195z" />
      <path
        d="M56.6347656,34.2548828c0.152832,0.0839844,0.3178711,0.1240234,0.480957,0.1240234  c0.3530273,0,0.6948242-0.1865234,0.8769531-0.5175781c0.8232422-1.4960938,1.2583008-3.2099609,1.2583008-4.9570312  c-0.0004883-0.4804688-0.0332031-0.9609375-0.097168-1.4287109c-0.074707-0.546875-0.5839844-0.9248047-1.1259766-0.8554688  c-0.5473633,0.0751953-0.9301758,0.5791016-0.8554688,1.1269531c0.0517578,0.3789062,0.078125,0.7685547,0.0786133,1.1582031  c0,1.4101562-0.3496094,2.7900391-1.0102539,3.9912109C55.9741211,33.3808594,56.1508789,33.9882812,56.6347656,34.2548828z" />
      <path
        d="M32.2768555,19.1796875h-5.9628906c-0.5522461,0-1,0.4472656-1,1s0.4477539,1,1,1h5.9628906c0.5522461,0,1-0.4472656,1-1  S32.8291016,19.1796875,32.2768555,19.1796875z" />
      <path
        d="M68.7617188,72.6425781h-5.9628906c-0.5522461,0-1,0.4472656-1,1s0.4477539,1,1,1h5.9628906c0.5522461,0,1-0.4472656,1-1  S69.3139648,72.6425781,68.7617188,72.6425781z" />
      <path
        d="M44.203125,19.1796875h-5.9628906c-0.5522461,0-1,0.4472656-1,1s0.4477539,1,1,1h5.9628906c0.5522461,0,1-0.4472656,1-1  S44.7553711,19.1796875,44.203125,19.1796875z" />
      <path
        d="M38.3447266,45.5205078c0.4682617,0,0.8862305-0.3300781,0.9799805-0.8066406  c0.3510742-1.7792969,1.2734375-3.3740234,2.5976562-4.4892578c0.4228516-0.3554688,0.4765625-0.9863281,0.1206055-1.4091797  c-0.3564453-0.421875-0.9868164-0.4775391-1.4086914-0.1201172c-1.6713867,1.4072266-2.8330078,3.4072266-3.2714844,5.6318359  c-0.1069336,0.5419922,0.2456055,1.0673828,0.7875977,1.1748047C38.2158203,45.5146484,38.2807617,45.5205078,38.3447266,45.5205078  z" />
      <path
        d="M21.9580078,75.9150391c0.4472656-0.3242188,0.546875-0.9492188,0.2226562-1.3964844  c-0.3237305-0.4462891-0.9487305-0.5478516-1.3964844-0.2226562c-1.7700195,1.2832031-3.065918,3.2011719-3.6484375,5.4023438  c-0.1411133,0.5341797,0.1767578,1.0810547,0.7109375,1.2226562c0.0859375,0.0224609,0.171875,0.0332031,0.2563477,0.0332031  c0.4428711,0,0.8476562-0.2958984,0.9663086-0.7441406C19.5341797,78.4541016,20.5600586,76.9287109,21.9580078,75.9150391z" />
      <path
        d="M84.434082,55.5517578c-0.503418-0.2216797-1.0957031,0-1.3212891,0.5048828  c-0.2255859,0.5039062,0,1.0947266,0.5039062,1.3212891c1.5629883,0.6992188,2.8476562,1.9960938,3.6166992,3.6494141  c0.1694336,0.3642578,0.5302734,0.578125,0.9072266,0.578125c0.1411133,0,0.284668-0.0302734,0.4213867-0.09375  c0.5004883-0.2324219,0.7177734-0.8271484,0.4848633-1.328125C88.074707,58.09375,86.4365234,56.4492188,84.434082,55.5517578z" />
      <path
        d="M78.1567383,54.8095703h-5.9633789c-0.5522461,0-1,0.4472656-1,1s0.4477539,1,1,1h5.9633789c0.5522461,0,1-0.4472656,1-1  S78.7089844,54.8095703,78.1567383,54.8095703z" />
      <path
        d="M17.7915039,90c0.5522461,0,1-0.4472656,1-1v-3c0-0.5527344-0.4477539-1-1-1s-1,0.4472656-1,1v3  C16.7915039,89.5527344,17.2392578,90,17.7915039,90z" />
    </symbol>
  </defs>
  <defs>
    <symbol id="icon-hike" viewBox="-5.0 -10.0 110.0 135.0">
      <path
        d="m11.34 14.977c0.089844 0 0.17969-0.011718 0.26562-0.035156 0.53125-0.14844 0.84375-0.69922 0.69531-1.2305-0.20312-0.72656-0.30469-1.4844-0.30469-2.2539v-0.45312c0-0.55078-0.44922-1-1-1-0.55078 0-1 0.44922-1 1v0.45312c0 0.94922 0.125 1.8867 0.375 2.7891 0.125 0.44141 0.52344 0.73438 0.96484 0.73438z" />
      <path
        d="m50.871 74.641h5.9648c0.55078 0 1-0.44922 1-1s-0.44922-1-1-1h-5.9648c-0.55078 0-1 0.44922-1 1s0.44922 1 1 1z" />
      <path
        d="m66.23 54.809h-5.9648c-0.55078 0-1 0.44922-1 1 0 0.55078 0.44922 1 1 1h5.9648c0.55078 0 1-0.44922 1-1 0-0.55078-0.44922-1-1-1z" />
      <path
        d="m56.633 34.254c0.15234 0.085938 0.32031 0.125 0.48047 0.125 0.35156 0 0.69531-0.1875 0.875-0.51562 0.82422-1.4961 1.2578-3.207 1.2578-4.957 0-0.48047-0.03125-0.96094-0.097656-1.4297-0.074219-0.54687-0.58203-0.92969-1.125-0.85547-0.54688 0.074218-0.92969 0.57812-0.85547 1.125 0.050781 0.37891 0.078125 0.76953 0.078125 1.1602 0 1.4102-0.34766 2.7891-1.0117 3.9922-0.26562 0.48437-0.089844 1.0938 0.39453 1.3594z" />
      <path
        d="m78.156 54.809h-5.9648c-0.55078 0-1 0.44922-1 1 0 0.55078 0.44922 1 1 1h5.9648c0.55078 0 1-0.44922 1-1 0-0.55078-0.44922-1-1-1z" />
      <path
        d="m61.797 73.641c0 0.55078 0.44922 1 1 1h5.9648c0.55078 0 1-0.44922 1-1s-0.44922-1-1-1h-5.9648c-0.55078 0-1 0.44922-1 1z" />
      <path
        d="m20.352 21.18c0.55078 0 1-0.44922 1-1 0-0.55078-0.44922-1-1-1h-1.3164c-1.3438 0-2.6523-0.41797-3.7812-1.2109-0.45312-0.32031-1.0781-0.20703-1.3945 0.24219-0.31641 0.45312-0.20703 1.0742 0.24219 1.3945 1.4688 1.0312 3.1719 1.5742 4.9297 1.5742z" />
      <path
        d="m32.277 21.18c0.55078 0 1-0.44922 1-1 0-0.55078-0.44922-1-1-1h-5.9648c-0.55078 0-1 0.44922-1 1 0 0.55078 0.44922 1 1 1z" />
      <path
        d="m21.957 75.914c0.44531-0.32422 0.54688-0.94922 0.22266-1.3984-0.32422-0.44531-0.94922-0.54688-1.3984-0.22266-1.7695 1.2812-3.0664 3.2031-3.6484 5.4023-0.14062 0.53516 0.17578 1.082 0.71094 1.2227 0.085938 0.023437 0.17188 0.035156 0.25781 0.035156 0.44141 0 0.84766-0.29688 0.96484-0.74609 0.46484-1.7578 1.4922-3.2812 2.8906-4.293z" />
      <path
        d="m73.727 73.641c0 0.55078 0.44922 1 1 1h5.9648c0.55078 0 1-0.44922 1-1s-0.44922-1-1-1h-5.9648c-0.55078 0-1 0.44922-1 1z" />
      <path
        d="m44.91 72.641h-5.9648c-0.55078 0-1 0.44922-1 1s0.44922 1 1 1h5.9648c0.55078 0 1-0.44922 1-1s-0.44922-1-1-1z" />
      <path
        d="m55.305 55.809c0-0.55078-0.44922-1-1-1h-5.9648c-0.55078 0-1 0.44922-1 1 0 0.55078 0.44922 1 1 1h5.9648c0.55078 0 1-0.44922 1-1z" />
      <path
        d="m87.891 66.273c-0.28906 1.7891-1.1523 3.418-2.4375 4.5859-0.40625 0.37109-0.4375 1.0039-0.066406 1.4141 0.19531 0.21484 0.46875 0.32812 0.73828 0.32812 0.24219 0 0.48047-0.085937 0.67188-0.26172 1.6133-1.4727 2.7031-3.5117 3.0625-5.7461 0.085937-0.54688-0.28125-1.0586-0.82812-1.1484-0.55469-0.09375-1.0586 0.28125-1.1484 0.82813z" />
      <path d="m27.02 72.641c-0.55078 0-1 0.44922-1 1s0.44922 1 1 1h5.9648c0.55078 0 1-0.44922 1-1s-0.44922-1-1-1z" />
      <path
        d="m45.801 37.633c0 0.55078 0.44922 1 1 1h3.4141c0.96875 0 1.9219-0.16406 2.832-0.48828 0.51953-0.18359 0.79297-0.75781 0.60938-1.2773-0.18359-0.51953-0.75391-0.79297-1.2773-0.60938-0.69531 0.24609-1.4219 0.37109-2.1641 0.37109h-3.4141c-0.55078 0-1 0.44922-1 1z" />
      <path
        d="m50.215 19.18h-0.050782c-0.55078 0-0.97656 0.44922-0.97656 1 0 0.55078 0.47266 1 1.0234 1 1.707 0 3.3555 0.67969 4.6367 1.918 0.19531 0.1875 0.44531 0.28125 0.69531 0.28125 0.26172 0 0.52344-0.10156 0.71875-0.30469 0.38281-0.39844 0.37109-1.0312-0.027344-1.4141-1.6562-1.5977-3.7969-2.4766-6.0234-2.4766z" />
      <path
        d="m42.055 55.73c0.15625 0.085937 0.32031 0.125 0.48437 0.125 0.35156 0 0.69141-0.18359 0.875-0.51562 0.26953-0.48438 0.09375-1.0938-0.38672-1.3594-1.5-0.83594-2.6836-2.2344-3.3281-3.9375-0.19531-0.51562-0.77344-0.77734-1.2891-0.58203-0.51562 0.19531-0.77734 0.77344-0.58203 1.2891 0.8125 2.1445 2.3125 3.9141 4.2266 4.9766z" />
      <path
        d="m84.434 55.555c-0.50391-0.22656-1.0977 0-1.3203 0.50391-0.22656 0.50391 0 1.0938 0.50391 1.3203 1.5625 0.69922 2.8477 1.9961 3.6172 3.6484 0.17188 0.36328 0.53125 0.57812 0.90625 0.57812 0.14062 0 0.28516-0.03125 0.42188-0.09375 0.5-0.23438 0.71875-0.82812 0.48438-1.3281-0.97266-2.0898-2.6133-3.7344-4.6133-4.6289z" />
      <path
        d="m38.344 45.52c0.46875 0 0.88672-0.32812 0.98047-0.80469 0.35156-1.7773 1.2734-3.375 2.5977-4.4883 0.42188-0.35547 0.47656-0.98828 0.12109-1.4102s-0.98828-0.47656-1.4102-0.12109c-1.6719 1.4062-2.832 3.4062-3.2695 5.6328-0.10547 0.54297 0.24609 1.0664 0.78906 1.1758 0.066406 0.011719 0.12891 0.019532 0.19531 0.019532z" />
      <path
        d="m44.203 19.18h-5.9648c-0.55078 0-1 0.44922-1 1 0 0.55078 0.44922 1 1 1h5.9648c0.55078 0 1-0.44922 1-1 0-0.55078-0.44922-1-1-1z" />
      <path
        d="m17.793 85c-0.55078 0-1 0.44922-1 1v3c0 0.55078 0.44922 1 1 1s1-0.44922 1-1v-3c0-0.55078-0.44922-1-1-1z" />
      <path
        d="m11 60.453h2.9688l-1.5312 4.2578c-0.1875 0.51953 0.082031 1.0938 0.60156 1.2812 0.11328 0.039062 0.22656 0.058593 0.33984 0.058593 0.41016 0 0.79297-0.25391 0.94141-0.66406l1.7773-4.9336h11.652l1.7773 4.9336c0.14844 0.40625 0.53125 0.66406 0.94141 0.66406 0.11328 0 0.22656-0.019531 0.33984-0.058593 0.51953-0.1875 0.78906-0.75781 0.60156-1.2812l-1.5312-4.2578h2.9688c0.55078 0 1-0.44922 1-1s-0.44922-1-1-1h-3.6875l-1.3711-3.8086h3.6953c0.55078 0 1-0.44922 1-1s-0.44922-1-1-1h-19.121c-0.55078 0-1 0.44922-1 1s0.44922 1 1 1h3.6953l-1.3711 3.8086h-3.6875c-0.55078 0-1 0.44922-1 1s0.44922 1 1 1zm7.1836-5.8086h7.4727l1.3711 3.8086h-10.215z" />
      <path
        d="m89 33.594h-3.6875l-1.3711-3.8086h3.6953c0.55078 0 1-0.44922 1-1 0-0.55078-0.44922-1-1-1h-19.117c-0.55078 0-1 0.44922-1 1 0 0.55078 0.44922 1 1 1h3.6953l-1.3711 3.8086h-3.6875c-0.55078 0-1 0.44922-1 1s0.44922 1 1 1h2.9688l-1.5312 4.2578c-0.1875 0.51953 0.082031 1.0938 0.60156 1.2812 0.11328 0.039063 0.22656 0.058594 0.33984 0.058594 0.41016 0 0.79297-0.25391 0.94141-0.66406l1.7773-4.9336h11.652l1.7773 4.9336c0.14844 0.40625 0.53125 0.66406 0.94141 0.66406 0.11328 0 0.22656-0.019531 0.33984-0.058594 0.51953-0.1875 0.78906-0.75781 0.60156-1.2812l-1.5312-4.2578h2.9688c0.55078 0 1-0.44922 1-1s-0.44922-1-1-1zm-16.027 0 1.3711-3.8086h7.4727l1.3711 3.8086z" />
    </symbol>
  </defs>
  <defs>
    <symbol id="icon-hike2" viewBox="0 0 100 125">
      <path
        d="M39.456,72.67l-9.908,21.081c-1.166,2.48-4.121,3.546-6.601,2.38c-2.424-1.139-3.493-3.997-2.452-6.44l9.158-21.419  c1.167-2.728,4.324-3.994,7.053-2.827c2.728,1.166,3.994,4.324,2.827,7.052C39.512,72.548,39.479,72.619,39.456,72.67z" />
      <path
        d="M30.41,17.534c-1.325-0.982-3.154-0.66-4.062,0.718l-3.175,4.809c-0.909,1.377-1.598,3.854-1.53,5.502l0.985,24.281  c0.067,1.648,1.472,3.008,3.122,3.021l0.897,0.008c1.65,0.014,3.371-1.274,3.824-2.861l7.527-26.358  c0.453-1.587-0.261-3.688-1.586-4.671L30.41,17.534z" />
      <g>
        <path
          d="M52.213,21.844c4.929,0.279,9.201-3.743,9.335-8.795c0.134-5.061-3.848-9.301-8.798-9.354   c-4.917-0.057-9.109,4.157-9.087,9.131C43.684,17.573,47.482,21.574,52.213,21.844z" />
        <path
          d="M78.258,43.087L49.553,25.238c-0.178-0.108-0.392-0.227-0.586-0.318c-2.814-1.32-6.161-0.129-7.517,2.66   c-0.671,0.79-1.185,1.733-1.462,2.804L34.2,52.709c-0.243,0.936-0.285,1.877-0.156,2.777c-0.349,2.149,0.438,4.419,2.262,5.873   l15.983,12.741v17.62c0,2.739,2.222,4.961,4.961,4.961s4.961-2.222,4.961-4.961v-20c-0.004-1.26-0.487-2.532-1.449-3.492   l-0.209-0.209L48.096,55.586l4.282-16.519l20.724,9.724l-2.724,45.553c-0.07,1.172,0.823,2.179,1.995,2.249   c0.043,0.003,0.086,0.004,0.129,0.004c1.116,0,2.053-0.87,2.12-1.999l2.68-44.826c0.858-0.24,1.634-0.785,2.142-1.602   C80.52,46.438,79.989,44.163,78.258,43.087z" />
      </g>
    </symbol>
  </defs>
  <defs>
    <symbol id="icon-park" viewBox="0 0 25 31.25">
      <defs>
        <style>
          .cls-1 {
            fill: none;
          }

          .cls-2 {
            clip-path: url(#a);
          }
        </style>
        <clipPath id="a">
          <rect class="cls-1" x="167" y="18" width="25" height="25" />
        </clipPath>
      </defs>
      <title>Artboard 12</title>
      <g data-name="Layer 8">
        <path
          d="M18,11a4.27,4.27,0,0,0,.27-1.51C18.29,7.57,17,6,15.5,6s-2.79,1.57-2.79,3.5A4.26,4.26,0,0,0,13,11a2.34,2.34,0,0,0-.52.11L10.88,7.44a1.51,1.51,0,0,0-2.76,0l-1.67,3.9a3.35,3.35,0,0,0-.09,2.33l0,.1A3.27,3.27,0,0,0,9,16V18.5h1V16a3.25,3.25,0,0,0,2.1-1.24,2.38,2.38,0,0,0,1.11.28H15v3.5h1V15h1.79A2.12,2.12,0,0,0,20,13,2.09,2.09,0,0,0,18,11Z" />
      </g>
    </symbol>
  </defs>
  <defs>
    <symbol id="icon-sunset" viewBox="-5.0 -10.0 110.0 135.0">
      <path
        d="m50.016 55.734h-27.082c-0.59766 0-1.082-0.48438-1.082-1.082 0-7.7773 3.1523-14.816 8.25-19.914 10.109-10.855 29.719-10.855 39.828 0 5.0977 5.0977 8.25 12.137 8.25 19.914 0 0.59766-0.48438 1.082-1.082 1.082zm-25.977-2.1641h51.949c-2.4961-33.055-49.469-33.031-51.949 0z"
        fill-rule="evenodd" />
      <path
        d="m17.008 24.242c-0.42187 0.42187-1.1094 0.42187-1.5312 0-0.011718-0.011719-3.7109-3.7539-6.8984-2.8984-0.57812 0.15234-1.1719-0.1875-1.3242-0.76562s0.1875-1.1719 0.76562-1.3242c3.3242-0.89062 6.7422 1.5195 8.2227 2.7656 1.4844-1.2461 4.8984-3.6562 8.2227-2.7656 1.3633 0.37109 0.80859 2.4492-0.55859 2.0898-3.1914-0.85547-6.8906 2.8867-6.8984 2.8984z"
        fill-rule="evenodd" />
      <path
        d="m78.586 14.102c-0.42188 0.42188-1.1094 0.42188-1.5312 0-0.011719-0.011718-3.7109-3.7539-6.8984-2.8984-0.57812 0.15234-1.1719-0.1875-1.3242-0.76562-0.15234-0.57812 0.1875-1.1719 0.76562-1.3242 3.3242-0.89062 6.7422 1.5195 8.2227 2.7656 1.4844-1.2461 4.8984-3.6562 8.2227-2.7656 1.3633 0.37109 0.80859 2.4492-0.55859 2.0898-3.1875-0.85547-6.8906 2.8867-6.8984 2.8984z"
        fill-rule="evenodd" />
      <path d="m34.535 71.043c1.4141 0.003906 1.418 2.1602 0 2.168h-10.418c-1.4141-0.003907-1.418-2.1602 0-2.168z"
        fill-rule="evenodd" />
      <path d="m67.121 79.977c1.4141 0.007813 1.418 2.1602 0 2.168h-3.3242c-1.4141-0.007812-1.418-2.1602 0-2.168z"
        fill-rule="evenodd" />
      <path d="m61.148 88.914c1.4102 0.003907 1.4219 2.1602 0 2.168h-22.273c-1.4102-0.003906-1.4219-2.1602 0-2.168z"
        fill-rule="evenodd" />
      <path d="m75.906 71.043c1.4062 0.003906 1.4219 2.1602 0 2.168h-28.508c-1.4062-0.003907-1.4219-2.1602 0-2.168z"
        fill-rule="evenodd" />
      <path d="m48.254 79.977c1.4102 0.003907 1.4219 2.1602 0 2.168h-15.348c-1.4102-0.003906-1.4219-2.1602 0-2.168z"
        fill-rule="evenodd" />
      <path d="m82.727 62.105c1.3906 0.003906 1.4375 2.1602 0 2.168h-65.43c-1.3906-0.003907-1.4375-2.1602 0-2.168z"
        fill-rule="evenodd" />
      <path
        d="m98.441 53.57c1.375 0 1.4492 2.1602 0 2.168h-96.855c-0.60156-0.003906-1.0859-0.48828-1.0859-1.0859s0.48438-1.082 1.082-1.082z"
        fill-rule="evenodd" />

    </symbol>
  </defs>
</svg>